<?xml version="1.0" standalone="no"?>
<!DOCTYPE svg PUBLIC "-//W3C//DTD SVG 20010904//EN"
 "http://www.w3.org/TR/2001/REC-SVG-20010904/DTD/svg10.dtd">
<svg version="1.0" xmlns="http://www.w3.org/2000/svg"
 width="300.000000pt" height="219.000000pt" viewBox="0 0 300.000000 219.000000"
 preserveAspectRatio="xMidYMid meet">
<metadata>
Created by potrace 1.10, written by Peter Selinger 2001-2011
</metadata>
<g transform="translate(0.000000,219.000000) scale(0.100000,-0.100000)"
fill="#000000" stroke="none">
<path d="M993 1868 l-33 -23 -1 -120 c-1 -66 -1 -123 -1 -126 1 -4 -14 -10
-32 -13 -52 -10 -59 -25 -51 -108 3 -40 10 -98 15 -128 5 -30 14 -113 21 -183
11 -113 15 -131 37 -152 l25 -25 509 0 509 0 24 26 25 27 0 357 0 357 -26 27
-27 26 -303 0 c-293 0 -303 1 -309 20 -3 11 -18 29 -32 40 -23 18 -40 20 -172
20 -135 0 -149 -2 -178 -22z m355 -48 l17 -40 310 0 c229 0 314 -3 323 -12 17
-17 17 -719 0 -736 -18 -18 -1021 -17 -1036 1 -9 11 -58 380 -65 492 l-2 30
184 5 184 5 12 35 12 35 315 3 c289 2 317 1 336 -15 18 -16 22 -37 33 -185 7
-93 16 -168 19 -168 3 0 4 107 2 237 -2 169 -7 240 -15 245 -7 5 -151 8 -322
7 l-310 0 -8 35 -9 36 -159 0 -159 0 0 -120 c0 -73 -4 -120 -10 -120 -6 0 -10
48 -10 125 0 108 2 125 18 134 9 6 85 11 170 11 l153 0 17 -40z m-34 -43 c8
-19 19 -38 25 -41 6 -4 149 -8 316 -8 l305 0 0 -45 c0 -40 -2 -44 -16 -33 -12
10 -88 13 -334 13 -341 0 -342 0 -361 -50 -8 -21 -15 -23 -78 -23 -37 0 -83
-3 -100 -6 l-31 -6 0 114 0 115 130 2 129 2 15 -34z"/>
<path d="M1294 1588 c-16 -56 -24 -58 -206 -58 -115 0 -168 -3 -168 -11 0 -23
51 -455 55 -466 3 -10 113 -13 504 -13 287 0 502 4 505 9 5 8 -36 444 -50 529
l-5 32 -314 0 -314 0 -7 -22z m611 -20 c6 -18 24 -172 35 -303 5 -60 12 -129
15 -152 l6 -43 -480 0 -480 0 -6 33 c-6 38 -45 366 -45 385 0 9 33 12 133 12
159 0 201 10 222 50 l16 30 290 0 c223 0 291 -3 294 -12z"/>
<path d="M1433 1427 c-51 -51 -73 -81 -73 -98 0 -17 22 -46 73 -96 64 -64 76
-71 106 -69 19 2 40 11 47 20 7 10 32 69 55 132 l43 115 49 -50 50 -50 -51
-56 c-54 -58 -63 -84 -37 -105 11 -9 20 -8 44 9 47 34 131 131 131 152 0 19
-141 169 -159 169 -6 0 -13 -5 -16 -10 -4 -6 -15 -8 -25 -5 -28 9 -43 -14 -84
-126 -21 -57 -41 -107 -45 -111 -4 -5 -27 12 -50 36 l-44 45 51 56 c29 31 52
63 52 70 0 14 -26 45 -37 45 -4 0 -39 -33 -80 -73z m97 36 c0 -4 -28 -36 -62
-70 l-62 -63 62 -63 c34 -34 62 -66 62 -70 0 -20 -32 2 -89 64 l-65 70 69 69
c65 66 85 80 85 63z m135 -10 c-3 -10 -27 -73 -52 -140 -25 -68 -50 -123 -55
-123 -6 0 -7 8 -3 18 4 9 27 72 52 140 25 67 50 122 56 122 5 0 6 -8 2 -17z
m120 -53 l70 -70 -72 -72 c-40 -40 -76 -69 -80 -65 -4 4 22 37 57 72 l64 65
-62 63 c-34 34 -62 66 -62 70 0 17 20 2 85 -63z"/>
<path d="M1305 749 c-19 -17 -35 -25 -35 -19 0 33 -70 52 -111 30 -17 -9 -19
-23 -20 -103 -1 -51 -4 -130 -9 -177 l-7 -85 -1 113 c0 72 -4 117 -11 126 -20
24 -69 30 -96 12 -23 -15 -25 -23 -25 -95 0 -83 -11 -106 -47 -99 -15 3 -18
16 -21 88 -2 46 -8 90 -14 97 -12 15 -86 17 -107 4 -8 -5 -17 -31 -20 -58 l-6
-48 -22 37 c-33 55 -76 78 -149 78 -52 0 -67 -4 -103 -30 -23 -17 -47 -42 -53
-55 -15 -33 -20 -31 -41 8 -26 47 -75 77 -131 79 l-46 1 0 41 c0 54 -13 66
-71 66 -35 0 -49 -4 -54 -17 -3 -10 -6 -103 -6 -208 1 -182 2 -191 23 -208 25
-21 77 -20 95 3 7 9 12 47 13 91 0 77 8 96 40 95 12 -1 16 -18 18 -81 3 -93
23 -125 77 -125 38 0 62 24 71 69 l7 32 21 -31 c39 -55 142 -88 183 -57 8 6
24 5 43 -3 63 -26 127 10 101 58 -6 11 -6 24 0 33 5 9 9 10 9 2 0 -7 14 -28
30 -47 18 -20 26 -37 20 -41 -5 -3 -10 -31 -10 -60 0 -59 7 -67 68 -78 42 -8
121 9 149 32 34 29 63 83 63 121 1 31 2 33 12 15 17 -31 39 -45 73 -45 60 0
65 16 65 211 1 132 3 169 12 155 7 -12 10 -75 9 -172 -2 -175 2 -190 59 -191
50 0 80 30 81 81 0 23 3 34 6 26 11 -27 43 -63 75 -83 40 -24 125 -33 172 -17
41 13 52 39 42 99 -4 25 -1 44 10 59 34 49 8 128 -52 157 -18 8 -57 15 -87 15
-62 0 -107 -25 -143 -77 l-21 -32 -11 52 c-6 31 -7 59 -1 69 16 29 10 64 -16
92 -32 34 -56 33 -100 -5z m91 -24 c15 -23 15 -27 0 -50 -30 -45 -86 -28 -86
27 0 49 59 65 86 23z m-1188 -55 c-3 -38 -4 -70 -3 -70 1 0 16 7 34 16 56 28
121 -1 152 -69 13 -30 19 -65 19 -124 l0 -83 -45 0 -45 0 0 87 c0 66 -4 91
-17 105 -20 22 -56 23 -77 2 -18 -18 -18 -14 -16 -116 l1 -78 -45 0 -46 0 0
200 0 200 46 0 47 0 -5 -70z m1042 -130 l0 -200 -45 0 -45 0 0 200 0 200 45 0
45 0 0 -200z m-599 80 c19 -5 48 -23 63 -39 24 -25 29 -42 37 -113 5 -45 14
-93 19 -105 9 -22 7 -23 -35 -23 -35 0 -45 4 -50 20 l-6 20 -26 -20 c-48 -38
-143 -15 -173 41 -49 91 -20 184 67 215 46 16 58 17 104 4z m246 -84 c1 -96
11 -116 54 -116 48 0 59 21 59 118 l0 87 45 0 45 0 0 -136 c0 -169 -5 -193
-46 -234 -37 -37 -90 -51 -154 -40 -40 7 -40 7 -40 52 0 37 3 44 18 39 78 -22
121 -10 133 37 8 30 -2 35 -21 12 -17 -21 -79 -19 -116 4 -47 29 -64 75 -64
178 l0 89 43 -2 42 -2 2 -86z m503 -53 l0 -143 -45 0 -45 0 0 138 c0 76 2 141
4 143 3 2 23 4 45 4 l41 1 0 -143z m288 121 c79 -52 33 -155 -69 -157 -24 -1
-52 2 -61 7 -11 5 -18 4 -18 -2 0 -19 60 -35 115 -29 l55 6 0 -39 c0 -43 -12
-50 -92 -50 -85 0 -141 35 -158 102 -13 45 0 103 30 137 42 49 142 61 198 25z"/>
<path d="M560 530 c-43 -43 -14 -110 48 -110 56 0 82 70 42 110 -11 11 -31 20
-45 20 -14 0 -34 -9 -45 -20z m68 -19 c24 -15 10 -56 -19 -59 -33 -4 -49 16
-38 46 9 22 33 28 57 13z"/>
<path d="M1557 533 c-16 -16 -4 -23 38 -23 33 0 45 4 45 15 0 11 -11 15 -38
15 -21 0 -42 -3 -45 -7z"/>
<path d="M1902 707 c-19 -22 -17 -246 2 -291 23 -55 70 -91 130 -100 53 -9 86
13 86 56 l0 32 30 -32 c40 -44 92 -65 138 -56 44 8 68 8 104 -1 16 -4 38 -1
56 7 24 13 32 13 47 1 25 -17 65 -17 93 3 20 13 22 24 22 93 0 82 13 110 45
97 11 -4 15 -23 15 -79 0 -91 21 -127 75 -127 55 0 65 19 65 126 0 62 -5 104
-14 122 -63 120 -233 128 -300 13 -10 -17 -22 -64 -26 -104 l-7 -72 -2 61 c-1
68 -30 136 -71 165 -37 27 -121 39 -165 23 -72 -24 -115 -84 -115 -159 0 -44
-1 -45 -27 -39 -49 10 -53 13 -53 39 0 19 5 25 23 25 34 0 47 19 47 66 0 45
-11 60 -50 66 -18 2 -26 10 -28 28 -2 14 -9 31 -14 38 -14 16 -93 16 -106 -1z
m98 -58 l0 -42 40 6 40 5 0 -43 0 -43 -40 5 -40 6 0 -43 c0 -53 22 -80 64 -80
31 0 31 -1 28 -40 -4 -37 -6 -40 -34 -40 -43 0 -95 27 -121 64 -19 27 -22 46
-26 159 l-3 127 46 0 46 0 0 -41z m368 -45 c39 -26 62 -74 62 -134 1 -30 7
-72 14 -92 l14 -38 -45 0 c-36 0 -46 4 -50 20 -5 20 -5 20 -30 0 -69 -54 -182
3 -198 100 -8 47 22 122 56 141 60 32 131 33 177 3z m340 6 c60 -27 81 -77 82
-187 l0 -83 -45 0 -45 0 0 90 c0 84 -1 90 -25 106 -32 21 -68 12 -83 -21 -7
-14 -12 -59 -12 -100 l0 -75 -40 0 -40 0 0 90 c0 119 25 168 96 190 45 13 65
11 112 -10z"/>
<path d="M2242 534 c-28 -19 -30 -74 -4 -97 29 -26 78 -22 98 8 42 64 -31 133
-94 89z m71 -35 c15 -24 1 -49 -27 -49 -31 0 -40 14 -32 46 8 29 42 30 59 3z"/>
</g>
</svg>
